<?xml version="1.0" encoding="UTF-8"?>
<svg id="Capa_2" data-name="Capa 2" xmlns="http://www.w3.org/2000/svg" viewBox="0 0 243.05 40.68">
  <defs>
    <style>
      .cls-1 {
        fill: #fff;
        isolation: isolate;
        stroke: #8d8e8d;
        stroke-miterlimit: 10;
      }

      .cls-2 {
        fill: #4285f4;
      }

      .cls-2,
      .cls-3,
      .cls-4,
      .cls-5,
      .cls-6 {
        stroke-width: 0px;
      }

      .cls-3 {
        fill: #5e5e5e;
      }

      .cls-4 {
        fill: #34a853;
      }

      .cls-5 {
        fill: #e94235;
      }

      .cls-6 {
        fill: #fbbc04;
      }
    </style>
  </defs>
  <g id="Capa_1-2" data-name="Capa 1">
    <g>
      <rect class="cls-1" x=".5" y=".5" width="242.05" height="39.68" />
      <g>
        <path class="cls-3" d="M46.2,25.45v-9.69h1.59v9.69h-1.59Z" />
        <path class="cls-3"
          d="M54,17.98c.83,0,1.47.21,1.93.64.46.43.69,1.11.69,2.05v4.78h-1.56v-4.49c0-.57-.12-.99-.35-1.28-.23-.29-.6-.43-1.09-.43-.71,0-1.21.22-1.48.66-.28.44-.41,1.07-.41,1.89v3.64h-1.56v-7.33h1.22l.22.99h.09c.16-.26.36-.47.59-.63.24-.17.5-.29.79-.37.29-.08.6-.13.92-.13Z" />
        <path class="cls-3"
          d="M59.59,15.31c.24,0,.44.06.62.19.17.13.26.35.26.66s-.09.53-.26.66c-.17.13-.38.2-.62.2s-.46-.07-.63-.2-.26-.35-.26-.66.09-.53.26-.66c.17-.13.38-.19.63-.19ZM60.36,18.12v7.33h-1.56v-7.33h1.56Z" />
        <path class="cls-3"
          d="M65.54,25.59c-.69,0-1.29-.13-1.8-.4-.51-.27-.9-.68-1.17-1.24-.27-.56-.41-1.27-.41-2.12s.15-1.62.45-2.19.72-.98,1.25-1.25c.53-.27,1.14-.4,1.83-.4.44,0,.83.04,1.19.13.36.09.66.19.9.31l-.46,1.25c-.27-.11-.55-.2-.83-.27s-.55-.12-.81-.12c-.43,0-.79.1-1.07.29-.28.19-.5.48-.64.85-.14.38-.21.84-.21,1.39s.07.99.21,1.36c.14.37.35.65.63.83.28.19.62.28,1.03.28s.76-.05,1.08-.15c.32-.1.62-.22.9-.38v1.35c-.28.16-.58.28-.89.35-.32.08-.71.12-1.17.12Z" />
        <path class="cls-3"
          d="M70.11,15.31c.24,0,.44.06.62.19.17.13.26.35.26.66s-.09.53-.26.66c-.17.13-.38.2-.62.2s-.46-.07-.63-.2-.26-.35-.26-.66.09-.53.26-.66c.17-.13.38-.19.63-.19ZM70.88,18.12v7.33h-1.56v-7.33h1.56Z" />
        <path class="cls-3"
          d="M75.98,17.98c.93,0,1.63.21,2.1.62s.71,1.05.71,1.92v4.94h-1.11l-.3-1.04h-.05c-.21.27-.42.48-.64.66s-.48.3-.76.39c-.29.08-.64.13-1.05.13-.44,0-.83-.08-1.18-.24-.34-.16-.62-.41-.81-.74-.2-.33-.29-.75-.29-1.26,0-.76.28-1.32.84-1.7s1.41-.59,2.55-.63l1.27-.05v-.38c0-.5-.12-.86-.35-1.08s-.57-.32-.99-.32c-.37,0-.72.05-1.07.16-.34.11-.68.23-1.01.38l-.51-1.1c.36-.19.77-.34,1.23-.46.46-.12.93-.18,1.43-.18ZM77.24,21.95l-.94.04c-.78.03-1.32.16-1.64.39-.31.24-.47.56-.47.98,0,.36.11.63.32.79s.5.25.85.25c.54,0,.98-.15,1.34-.46.35-.31.53-.76.53-1.35v-.64Z" />
        <path class="cls-3"
          d="M84.69,17.98c.12,0,.26,0,.4.02.15.01.27.03.38.05l-.15,1.46c-.09-.03-.21-.05-.34-.06s-.25-.02-.36-.02c-.28,0-.54.05-.8.14-.25.09-.47.23-.67.41-.19.18-.35.41-.46.69s-.17.59-.17.95v3.83h-1.57v-7.33h1.23l.21,1.29h.07c.15-.26.33-.5.54-.72.22-.22.46-.39.75-.52.28-.13.59-.2.92-.2Z" />
        <path class="cls-3"
          d="M95.28,23.36c0,.48-.12.89-.35,1.22-.23.33-.58.58-1.02.75s-1,.25-1.65.25c-.51,0-.95-.04-1.32-.11-.37-.07-.72-.18-1.05-.33v-1.34c.35.16.75.3,1.18.42.43.12.85.18,1.24.18.51,0,.88-.08,1.1-.24.23-.16.34-.38.34-.65,0-.16-.05-.3-.14-.43-.09-.13-.26-.26-.5-.39s-.61-.29-1.08-.48c-.46-.19-.85-.37-1.17-.56-.32-.19-.56-.41-.72-.67-.16-.26-.25-.6-.25-1.01,0-.65.26-1.15.77-1.49.52-.34,1.2-.51,2.05-.51.45,0,.88.05,1.28.14.4.09.79.22,1.18.39l-.49,1.17c-.33-.14-.66-.26-1-.35-.33-.09-.67-.14-1.02-.14-.4,0-.71.06-.92.19-.21.12-.31.3-.31.52,0,.17.05.32.15.44.1.12.28.24.53.36.25.12.6.27,1.04.44.44.17.82.34,1.14.53.32.18.57.41.74.67.17.27.26.61.26,1.03Z" />
        <path class="cls-3"
          d="M99.88,17.98c.65,0,1.21.13,1.68.4.47.27.83.65,1.08,1.15s.38,1.09.38,1.78v.83h-4.9c.02.71.21,1.26.57,1.64s.88.58,1.53.58c.47,0,.89-.04,1.26-.14.37-.09.76-.22,1.16-.4v1.27c-.37.17-.74.3-1.12.38-.38.08-.83.12-1.36.12-.72,0-1.35-.14-1.9-.42-.55-.28-.97-.7-1.28-1.25s-.46-1.25-.46-2.08.14-1.52.42-2.09.67-1.01,1.17-1.31,1.09-.45,1.76-.45ZM99.88,19.15c-.49,0-.89.16-1.19.48-.3.32-.48.78-.53,1.4h3.33c0-.37-.06-.69-.18-.97-.12-.28-.29-.5-.53-.66-.23-.16-.53-.24-.9-.24Z" />
        <path class="cls-3"
          d="M109.71,23.36c0,.48-.12.89-.35,1.22-.23.33-.58.58-1.02.75s-1,.25-1.65.25c-.51,0-.95-.04-1.32-.11-.37-.07-.72-.18-1.05-.33v-1.34c.35.16.75.3,1.18.42.43.12.85.18,1.24.18.51,0,.88-.08,1.1-.24.23-.16.34-.38.34-.65,0-.16-.05-.3-.14-.43-.09-.13-.26-.26-.5-.39s-.61-.29-1.08-.48c-.46-.19-.85-.37-1.17-.56-.32-.19-.56-.41-.72-.67-.16-.26-.25-.6-.25-1.01,0-.65.26-1.15.77-1.49.52-.34,1.2-.51,2.05-.51.45,0,.88.05,1.28.14.4.09.79.22,1.18.39l-.49,1.17c-.33-.14-.66-.26-1-.35-.33-.09-.67-.14-1.02-.14-.4,0-.71.06-.92.19-.21.12-.31.3-.31.52,0,.17.05.32.15.44.1.12.28.24.53.36.25.12.6.27,1.04.44.44.17.82.34,1.14.53.32.18.57.41.74.67.17.27.26.61.26,1.03Z" />
        <path class="cls-3"
          d="M112.17,15.31c.24,0,.44.06.62.19.17.13.26.35.26.66s-.09.53-.26.66c-.17.13-.38.2-.62.2s-.46-.07-.63-.2-.26-.35-.26-.66.09-.53.26-.66c.17-.13.38-.19.63-.19ZM112.94,18.12v7.33h-1.56v-7.33h1.56Z" />
        <path class="cls-3"
          d="M121.66,21.77c0,.61-.08,1.15-.24,1.62s-.39.87-.7,1.2c-.3.33-.67.57-1.1.74-.43.17-.91.25-1.45.25-.5,0-.96-.08-1.38-.25-.42-.17-.78-.42-1.09-.74-.31-.33-.54-.73-.71-1.2s-.25-1.01-.25-1.62c0-.81.14-1.49.42-2.06s.68-.99,1.2-1.29c.52-.3,1.14-.44,1.86-.44.68,0,1.27.15,1.79.44s.92.73,1.21,1.29.44,1.25.44,2.05ZM116.34,21.77c0,.53.06.99.2,1.37s.33.67.61.87.63.3,1.06.3.78-.1,1.05-.3.48-.49.61-.87c.13-.38.2-.84.2-1.37s-.07-.98-.2-1.35c-.13-.37-.33-.66-.61-.85-.27-.2-.63-.29-1.06-.29-.65,0-1.12.22-1.41.65s-.44,1.05-.44,1.85ZM120.46,15.06v.14c-.11.12-.25.28-.43.46s-.38.37-.59.57c-.21.2-.42.38-.63.56s-.4.33-.56.45h-1.04v-.17c.15-.17.31-.37.49-.6.18-.23.36-.47.53-.72.17-.25.32-.47.44-.68h1.8Z" />
        <path class="cls-3"
          d="M127.27,17.98c.83,0,1.47.21,1.93.64.46.43.69,1.11.69,2.05v4.78h-1.56v-4.49c0-.57-.12-.99-.35-1.28-.23-.29-.6-.43-1.09-.43-.71,0-1.2.22-1.48.66-.28.44-.41,1.07-.41,1.89v3.64h-1.56v-7.33h1.22l.22.99h.09c.16-.26.36-.47.59-.63.24-.17.5-.29.8-.37.29-.08.6-.13.92-.13Z" />
        <path class="cls-3"
          d="M138.54,25.59c-.69,0-1.29-.13-1.8-.4-.51-.27-.9-.68-1.17-1.24-.27-.56-.41-1.27-.41-2.12s.15-1.62.45-2.19.72-.98,1.25-1.25c.53-.27,1.14-.4,1.83-.4.44,0,.83.04,1.19.13.36.09.66.19.91.31l-.46,1.25c-.27-.11-.55-.2-.83-.27-.28-.08-.55-.12-.82-.12-.43,0-.79.1-1.07.29-.29.19-.5.48-.64.85-.14.38-.21.84-.21,1.39s.07.99.21,1.36c.14.37.35.65.63.83.28.19.62.28,1.03.28s.76-.05,1.08-.15c.32-.1.62-.22.9-.38v1.35c-.28.16-.58.28-.89.35-.32.08-.71.12-1.17.12Z" />
        <path class="cls-3"
          d="M148.82,21.77c0,.61-.08,1.15-.24,1.62s-.39.87-.7,1.2c-.3.33-.67.57-1.1.74-.43.17-.91.25-1.45.25-.5,0-.97-.08-1.38-.25-.42-.17-.78-.42-1.09-.74-.31-.33-.54-.73-.71-1.2-.17-.47-.25-1.01-.25-1.62,0-.81.14-1.49.42-2.06.28-.56.68-.99,1.2-1.29s1.14-.44,1.86-.44c.68,0,1.27.15,1.79.44s.92.73,1.21,1.29c.29.57.44,1.25.44,2.05ZM143.5,21.77c0,.53.06.99.2,1.37.13.38.33.67.61.87.27.2.63.3,1.06.3s.78-.1,1.05-.3c.27-.2.48-.49.61-.87.13-.38.2-.84.2-1.37s-.06-.98-.2-1.35c-.13-.37-.33-.66-.61-.85-.27-.2-.63-.29-1.06-.29-.64,0-1.12.22-1.41.65s-.44,1.05-.44,1.85Z" />
        <path class="cls-3"
          d="M154.43,17.98c.83,0,1.47.21,1.93.64.46.43.69,1.11.69,2.05v4.78h-1.56v-4.49c0-.57-.12-.99-.35-1.28-.23-.29-.6-.43-1.09-.43-.71,0-1.2.22-1.48.66-.28.44-.41,1.07-.41,1.89v3.64h-1.56v-7.33h1.22l.22.99h.09c.16-.26.36-.47.59-.63.24-.17.5-.29.8-.37.29-.08.6-.13.92-.13Z" />
        <path class="cls-3"
          d="M166.82,20.19h3.61v4.86c-.51.17-1.03.3-1.57.39s-1.15.14-1.83.14c-.99,0-1.82-.2-2.5-.59-.68-.39-1.2-.96-1.55-1.7-.35-.74-.53-1.64-.53-2.7s.2-1.89.59-2.63c.39-.74.97-1.32,1.72-1.73.75-.41,1.66-.61,2.73-.61.53,0,1.03.05,1.53.16.49.11.94.25,1.36.42l-.56,1.31c-.33-.15-.69-.28-1.1-.38s-.82-.16-1.26-.16c-.69,0-1.29.15-1.79.45-.5.3-.89.72-1.16,1.27-.27.54-.4,1.19-.4,1.93s.11,1.35.33,1.89c.22.54.55.97,1.02,1.27.46.3,1.06.45,1.79.45.36,0,.67-.02.93-.06.26-.04.5-.08.71-.13v-2.49h-2.05v-1.36Z" />
        <path class="cls-3"
          d="M179.09,21.77c0,.61-.08,1.15-.24,1.62s-.39.87-.7,1.2c-.3.33-.67.57-1.1.74-.43.17-.91.25-1.45.25-.5,0-.97-.08-1.38-.25-.42-.17-.78-.42-1.09-.74-.31-.33-.54-.73-.71-1.2-.17-.47-.25-1.01-.25-1.62,0-.81.14-1.49.42-2.06.28-.56.68-.99,1.2-1.29s1.14-.44,1.86-.44c.68,0,1.27.15,1.79.44s.92.73,1.21,1.29c.29.57.44,1.25.44,2.05ZM173.77,21.77c0,.53.06.99.2,1.37.13.38.33.67.61.87.27.2.63.3,1.06.3s.78-.1,1.05-.3c.27-.2.48-.49.61-.87.13-.38.2-.84.2-1.37s-.06-.98-.2-1.35c-.13-.37-.33-.66-.61-.85-.27-.2-.63-.29-1.06-.29-.64,0-1.12.22-1.41.65s-.44,1.05-.44,1.85Z" />
        <path class="cls-3"
          d="M187.37,21.77c0,.61-.08,1.15-.24,1.62s-.39.87-.7,1.2c-.3.33-.67.57-1.1.74-.43.17-.91.25-1.45.25-.5,0-.97-.08-1.38-.25-.42-.17-.78-.42-1.09-.74-.31-.33-.54-.73-.71-1.2-.17-.47-.25-1.01-.25-1.62,0-.81.14-1.49.42-2.06.28-.56.68-.99,1.2-1.29s1.14-.44,1.86-.44c.68,0,1.27.15,1.79.44s.92.73,1.21,1.29c.29.57.44,1.25.44,2.05ZM182.05,21.77c0,.53.06.99.2,1.37.13.38.33.67.61.87.27.2.63.3,1.06.3s.78-.1,1.05-.3c.27-.2.48-.49.61-.87.13-.38.2-.84.2-1.37s-.06-.98-.2-1.35c-.13-.37-.33-.66-.61-.85-.27-.2-.63-.29-1.06-.29-.64,0-1.12.22-1.41.65s-.44,1.05-.44,1.85Z" />
        <path class="cls-3"
          d="M191.26,28.71c-.99,0-1.76-.18-2.29-.54-.53-.36-.8-.86-.8-1.5,0-.45.14-.83.43-1.14.28-.31.69-.52,1.22-.64-.2-.09-.37-.23-.52-.42-.15-.19-.22-.4-.22-.63,0-.27.08-.51.23-.7.16-.19.39-.38.69-.56-.38-.16-.69-.43-.92-.8-.23-.37-.35-.8-.35-1.3,0-.53.11-.98.34-1.35.23-.37.56-.66.99-.85.43-.2.96-.29,1.57-.29.13,0,.28,0,.43.02.16.02.3.03.44.05.13.02.24.04.31.06h2.54v.87l-1.25.23c.12.17.21.36.28.57.07.21.11.45.11.7,0,.76-.26,1.36-.79,1.79s-1.24.65-2.16.65c-.22,0-.43-.02-.64-.05-.16.1-.28.21-.36.32s-.13.25-.13.39c0,.12.04.22.13.29.08.07.21.13.37.16.17.04.37.05.61.05h1.27c.8,0,1.42.17,1.84.51.42.34.64.84.64,1.5,0,.83-.34,1.48-1.03,1.93-.69.45-1.68.68-2.97.68ZM191.31,27.62c.54,0,.99-.05,1.36-.16s.65-.26.84-.45c.19-.2.29-.43.29-.7,0-.24-.06-.42-.18-.55-.12-.13-.3-.22-.54-.26s-.53-.07-.89-.07h-1.15c-.29,0-.54.04-.76.14-.22.09-.39.22-.51.39-.12.17-.18.38-.18.62,0,.34.15.59.45.78.3.18.72.27,1.27.27ZM191.62,21.91c.45,0,.79-.12,1.01-.37s.33-.6.33-1.06c0-.49-.11-.86-.34-1.11-.23-.25-.56-.37-1.01-.37s-.77.13-1,.38c-.23.25-.34.62-.34,1.11,0,.45.11.79.34,1.04s.56.37,1,.37Z" />
        <path class="cls-3" d="M198.24,25.45h-1.57v-10.31h1.57v10.31Z" />
        <path class="cls-3"
          d="M203.39,17.98c.65,0,1.21.13,1.68.4.47.27.83.65,1.08,1.15.25.49.38,1.09.38,1.78v.83h-4.9c.02.71.21,1.26.57,1.64.36.38.88.58,1.53.58.47,0,.89-.04,1.26-.14.37-.09.76-.22,1.16-.4v1.27c-.37.17-.74.3-1.12.38s-.83.12-1.37.12c-.72,0-1.35-.14-1.9-.42-.55-.28-.97-.7-1.28-1.25s-.46-1.25-.46-2.08.14-1.52.42-2.09.67-1.01,1.17-1.31,1.09-.45,1.76-.45ZM203.39,19.15c-.49,0-.89.16-1.19.48-.3.32-.48.78-.53,1.4h3.33c0-.37-.07-.69-.18-.97-.12-.28-.29-.5-.53-.66s-.53-.24-.9-.24Z" />
      </g>
      <g>
        <path class="cls-2"
          d="M32.15,20.85c0-.69-.06-1.36-.18-2h-9.22v3.79h5.27c-.23,1.22-.92,2.26-1.95,2.95v2.46h3.16c1.85-1.7,2.92-4.21,2.92-7.2Z" />
        <path class="cls-4"
          d="M22.75,30.42c2.64,0,4.86-.88,6.48-2.37l-3.16-2.46c-.88.59-2,.93-3.32.93-2.55,0-4.71-1.72-5.48-4.04h-3.27v2.54c1.61,3.2,4.92,5.39,8.75,5.39Z" />
        <path class="cls-6"
          d="M17.27,22.49c-.2-.59-.31-1.21-.31-1.86s.11-1.27.31-1.86v-2.54h-3.27c-.66,1.32-1.04,2.82-1.04,4.4s.38,3.07,1.04,4.4l3.27-2.54Z" />
        <path class="cls-5"
          d="M22.75,14.74c1.44,0,2.73.49,3.74,1.46l2.81-2.81c-1.7-1.58-3.91-2.55-6.55-2.55-3.83,0-7.14,2.19-8.75,5.39l3.27,2.54c.77-2.31,2.93-4.04,5.48-4.04Z" />
      </g>
    </g>
  </g>
</svg>