<?xml version="1.0" encoding="UTF-8"?>
<svg id="Capa_2" data-name="Capa 2" xmlns="http://www.w3.org/2000/svg" viewBox="0 0 26 26">
  <defs>
    <style>
      .cls-1 {
        fill: #000;
      }

      .cls-1,
      .cls-2 {
        stroke-width: 0px;
      }

      .cls-2 {
        fill: none;
      }
    </style>
  </defs>
  <g id="Capa_1-2" data-name="Capa 1">
    <g>
      <g>
        <path class="cls-1"
          d="M6.32,9.94c-.4,0-.72.32-.72.72v9.94c0,.4.32.72.72.72s.72-.32.72-.72v-9.94c0-.4-.32-.72-.72-.72Z" />
        <path class="cls-1"
          d="M10.42,9.94c-.4,0-.72.32-.72.72v9.94c0,.4.32.72.72.72s.72-.32.72-.72v-9.94c0-.4-.32-.72-.72-.72Z" />
        <path class="cls-1"
          d="M14.51,9.94c-.4,0-.72.32-.72.72v9.94c0,.4.32.72.72.72s.72-.32.72-.72v-9.94c0-.4-.32-.72-.72-.72Z" />
        <path class="cls-1"
          d="M20.55,9.94h-2.1v-4.24c0-1.85-1.51-3.36-3.36-3.36h-2.73c-.53-1.38-1.88-2.34-3.4-2.34h-1.17c-1.67,0-3.08,1.11-3.5,2.69-1.15.56-1.89,1.72-1.89,3.01v16.9c0,1.87,1.52,3.4,3.4,3.4h9.26c1.87,0,3.4-1.52,3.4-3.4v-1.28h2.1c1.69,0,3.06-1.37,3.06-3.06v-5.25c0-1.69-1.37-3.06-3.06-3.06ZM3.82,5.7c0-.82.53-1.55,1.31-1.82l.41-.14.06-.43c.16-1.09,1.08-1.88,2.17-1.88h1.17c1.05,0,1.96.74,2.16,1.77l.12.57h3.85c1.06,0,1.93.87,1.93,1.93v.73H3.82v-.73ZM17.01,22.6c0,1.08-.88,1.96-1.96,1.96H5.78c-1.08,0-1.96-.88-1.96-1.96V7.87h13.19v14.74ZM22.18,18.26c0,.9-.73,1.63-1.63,1.63h-2.1v-8.51h2.1c.9,0,1.63.73,1.63,1.63v5.25Z" />
      </g>
      <rect class="cls-2" width="20" height="20" />
    </g>
  </g>
</svg>