<?xml version="1.0" encoding="UTF-8"?>
<svg id="Capa_2" data-name="Capa 2" xmlns="http://www.w3.org/2000/svg" viewBox="0 0 26 26">
  <defs>
    <style>
      .cls-1 {
        fill: #000;
      }

      .cls-1,
      .cls-2 {
        stroke-width: 0px;
      }

      .cls-2 {
        fill: none;
      }
    </style>
  </defs>
  <g id="Capa_1-2" data-name="Capa 1">
    <g>
      <path class="cls-1"
        d="M13,25.98l-.53-.52c-.38-.36-9.3-8.89-9.3-15.65C3.17,4.4,7.57,0,13,0s9.83,4.4,9.83,9.83c0,6.76-8.92,15.29-9.3,15.65l-.53.52v-.02ZM13,1.57c-4.56,0-8.26,3.7-8.26,8.26,0,5.19,6.34,12.02,8.26,13.97,1.92-1.95,8.26-8.78,8.26-13.97,0-4.56-3.7-8.26-8.26-8.26ZM13,15.13c-2.93,0-5.32-2.38-5.32-5.32s2.38-5.32,5.32-5.32,5.32,2.38,5.32,5.32-2.38,5.32-5.32,5.32ZM13,6.1c-2.06,0-3.74,1.68-3.74,3.74s1.68,3.74,3.74,3.74,3.74-1.68,3.74-3.74-1.68-3.74-3.74-3.74Z" />
      <rect class="cls-2" width="20" height="20" />
    </g>
  </g>
</svg>