<?xml version="1.0" encoding="UTF-8"?>
<svg id="Capa_2" data-name="Capa 2" xmlns="http://www.w3.org/2000/svg" viewBox="0 0 243.05 40.68">
  <defs>
    <style>
      .cls-1 {
        fill: #fff;
        stroke: #8d8e8d;
        stroke-miterlimit: 10;
      }

      .cls-1,
      .cls-2,
      .cls-3,
      .cls-4,
      .cls-5 {
        isolation: isolate;
      }

      .cls-2 {
        fill: #7fba00;
      }

      .cls-2,
      .cls-6,
      .cls-3,
      .cls-4,
      .cls-5 {
        stroke-width: 0px;
      }

      .cls-6 {
        fill: #5e5e5e;
      }

      .cls-3 {
        fill: #ffb900;
      }

      .cls-4 {
        fill: #f25022;
      }

      .cls-5 {
        fill: #00a4ef;
      }
    </style>
  </defs>
  <g id="Capa_1-2" data-name="Capa 1">
    <g>
      <rect class="cls-1" x=".5" y=".5" width="242.05" height="39.68" />
      <g>
        <rect class="cls-4" x="12.96" y="10.84" width="9" height="9" />
        <rect class="cls-2" x="22.96" y="10.84" width="9" height="9" />
        <rect class="cls-5" x="12.96" y="20.84" width="9" height="9" />
        <rect class="cls-3" x="22.96" y="20.84" width="9" height="9" />
        <g>
          <path class="cls-6" d="M46.2,25.45v-9.69h1.59v9.69h-1.59Z" />
          <path class="cls-6"
            d="M54,17.98c.83,0,1.47.21,1.93.64.46.43.69,1.11.69,2.05v4.78h-1.56v-4.49c0-.57-.12-.99-.35-1.28-.23-.29-.6-.43-1.09-.43-.71,0-1.21.22-1.48.66-.28.44-.41,1.07-.41,1.89v3.64h-1.56v-7.33h1.22l.22.99h.09c.16-.26.36-.47.59-.63.24-.17.5-.29.79-.37.29-.08.6-.13.92-.13Z" />
          <path class="cls-6"
            d="M59.59,15.31c.24,0,.44.06.62.19.17.13.26.35.26.66s-.09.53-.26.66c-.17.13-.38.2-.62.2s-.46-.07-.63-.2-.26-.35-.26-.66.09-.53.26-.66c.17-.13.38-.19.63-.19ZM60.36,18.12v7.33h-1.56v-7.33h1.56Z" />
          <path class="cls-6"
            d="M65.54,25.59c-.69,0-1.29-.13-1.8-.4-.51-.27-.9-.68-1.17-1.24-.27-.56-.41-1.27-.41-2.12s.15-1.62.45-2.19.72-.98,1.25-1.25c.53-.27,1.14-.4,1.83-.4.44,0,.83.04,1.19.13.36.09.66.19.9.31l-.46,1.25c-.27-.11-.55-.2-.83-.27s-.55-.12-.81-.12c-.43,0-.79.1-1.07.29-.28.19-.5.48-.64.85-.14.38-.21.84-.21,1.39s.07.99.21,1.36c.14.37.35.65.63.83.28.19.62.28,1.03.28s.76-.05,1.08-.15c.32-.1.62-.22.9-.38v1.35c-.28.16-.58.28-.89.35-.32.08-.71.12-1.17.12Z" />
          <path class="cls-6"
            d="M70.11,15.31c.24,0,.44.06.62.19.17.13.26.35.26.66s-.09.53-.26.66c-.17.13-.38.2-.62.2s-.46-.07-.63-.2-.26-.35-.26-.66.09-.53.26-.66c.17-.13.38-.19.63-.19ZM70.88,18.12v7.33h-1.56v-7.33h1.56Z" />
          <path class="cls-6"
            d="M75.98,17.98c.93,0,1.63.21,2.1.62s.71,1.05.71,1.92v4.94h-1.11l-.3-1.04h-.05c-.21.27-.42.48-.64.66s-.48.3-.76.39c-.29.08-.64.13-1.05.13-.44,0-.83-.08-1.18-.24-.34-.16-.62-.41-.81-.74-.2-.33-.29-.75-.29-1.26,0-.76.28-1.32.84-1.7s1.41-.59,2.55-.63l1.27-.05v-.38c0-.5-.12-.86-.35-1.08s-.57-.32-.99-.32c-.37,0-.72.05-1.07.16-.34.11-.68.23-1.01.38l-.51-1.1c.36-.19.77-.34,1.23-.46.46-.12.93-.18,1.43-.18ZM77.24,21.95l-.94.04c-.78.03-1.32.16-1.64.39-.31.24-.47.56-.47.98,0,.36.11.63.32.79s.5.25.85.25c.54,0,.98-.15,1.34-.46.35-.31.53-.76.53-1.35v-.64Z" />
          <path class="cls-6"
            d="M84.69,17.98c.12,0,.26,0,.4.02.15.01.27.03.38.05l-.15,1.46c-.09-.03-.21-.05-.34-.06s-.25-.02-.36-.02c-.28,0-.54.05-.8.14-.25.09-.47.23-.67.41-.19.18-.35.41-.46.69s-.17.59-.17.95v3.83h-1.57v-7.33h1.23l.21,1.29h.07c.15-.26.33-.5.54-.72.22-.22.46-.39.75-.52.28-.13.59-.2.92-.2Z" />
          <path class="cls-6"
            d="M95.28,23.36c0,.48-.12.89-.35,1.22-.23.33-.58.58-1.02.75s-1,.25-1.65.25c-.51,0-.95-.04-1.32-.11-.37-.07-.72-.18-1.05-.33v-1.34c.35.16.75.3,1.18.42.43.12.85.18,1.24.18.51,0,.88-.08,1.1-.24.23-.16.34-.38.34-.65,0-.16-.05-.3-.14-.43-.09-.13-.26-.26-.5-.39s-.61-.29-1.08-.48c-.46-.19-.85-.37-1.17-.56-.32-.19-.56-.41-.72-.67-.16-.26-.25-.6-.25-1.01,0-.65.26-1.15.77-1.49.52-.34,1.2-.51,2.05-.51.45,0,.88.05,1.28.14.4.09.79.22,1.18.39l-.49,1.17c-.33-.14-.66-.26-1-.35-.33-.09-.67-.14-1.02-.14-.4,0-.71.06-.92.19-.21.12-.31.3-.31.52,0,.17.05.32.15.44.1.12.28.24.53.36.25.12.6.27,1.04.44.44.17.82.34,1.14.53.32.18.57.41.74.67.17.27.26.61.26,1.03Z" />
          <path class="cls-6"
            d="M99.88,17.98c.65,0,1.21.13,1.68.4.47.27.83.65,1.08,1.15s.38,1.09.38,1.78v.83h-4.9c.02.71.21,1.26.57,1.64s.88.58,1.53.58c.47,0,.89-.04,1.26-.14.37-.09.76-.22,1.16-.4v1.27c-.37.17-.74.3-1.12.38-.38.08-.83.12-1.36.12-.72,0-1.35-.14-1.9-.42-.55-.28-.97-.7-1.28-1.25s-.46-1.25-.46-2.08.14-1.52.42-2.09.67-1.01,1.17-1.31,1.09-.45,1.76-.45ZM99.88,19.15c-.49,0-.89.16-1.19.48-.3.32-.48.78-.53,1.4h3.33c0-.37-.06-.69-.18-.97-.12-.28-.29-.5-.53-.66-.23-.16-.53-.24-.9-.24Z" />
          <path class="cls-6"
            d="M109.71,23.36c0,.48-.12.89-.35,1.22-.23.33-.58.58-1.02.75s-1,.25-1.65.25c-.51,0-.95-.04-1.32-.11-.37-.07-.72-.18-1.05-.33v-1.34c.35.16.75.3,1.18.42.43.12.85.18,1.24.18.51,0,.88-.08,1.1-.24.23-.16.34-.38.34-.65,0-.16-.05-.3-.14-.43-.09-.13-.26-.26-.5-.39s-.61-.29-1.08-.48c-.46-.19-.85-.37-1.17-.56-.32-.19-.56-.41-.72-.67-.16-.26-.25-.6-.25-1.01,0-.65.26-1.15.77-1.49.52-.34,1.2-.51,2.05-.51.45,0,.88.05,1.28.14.4.09.79.22,1.18.39l-.49,1.17c-.33-.14-.66-.26-1-.35-.33-.09-.67-.14-1.02-.14-.4,0-.71.06-.92.19-.21.12-.31.3-.31.52,0,.17.05.32.15.44.1.12.28.24.53.36.25.12.6.27,1.04.44.44.17.82.34,1.14.53.32.18.57.41.74.67.17.27.26.61.26,1.03Z" />
          <path class="cls-6"
            d="M112.17,15.31c.24,0,.44.06.62.19.17.13.26.35.26.66s-.09.53-.26.66c-.17.13-.38.2-.62.2s-.46-.07-.63-.2-.26-.35-.26-.66.09-.53.26-.66c.17-.13.38-.19.63-.19ZM112.94,18.12v7.33h-1.56v-7.33h1.56Z" />
          <path class="cls-6"
            d="M121.66,21.77c0,.61-.08,1.15-.24,1.62s-.39.87-.7,1.2c-.3.33-.67.57-1.1.74-.43.17-.91.25-1.45.25-.5,0-.96-.08-1.38-.25-.42-.17-.78-.42-1.09-.74-.31-.33-.54-.73-.71-1.2s-.25-1.01-.25-1.62c0-.81.14-1.49.42-2.06s.68-.99,1.2-1.29c.52-.3,1.14-.44,1.86-.44.68,0,1.27.15,1.79.44s.92.73,1.21,1.29.44,1.25.44,2.05ZM116.34,21.77c0,.53.06.99.2,1.37s.33.67.61.87.63.3,1.06.3.78-.1,1.05-.3.48-.49.61-.87c.13-.38.2-.84.2-1.37s-.07-.98-.2-1.35c-.13-.37-.33-.66-.61-.85-.27-.2-.63-.29-1.06-.29-.65,0-1.12.22-1.41.65s-.44,1.05-.44,1.85ZM120.46,15.06v.14c-.11.12-.25.28-.43.46s-.38.37-.59.57c-.21.2-.42.38-.63.56s-.4.33-.56.45h-1.04v-.17c.15-.17.31-.37.49-.6.18-.23.36-.47.53-.72.17-.25.32-.47.44-.68h1.8Z" />
          <path class="cls-6"
            d="M127.27,17.98c.83,0,1.47.21,1.93.64.46.43.69,1.11.69,2.05v4.78h-1.56v-4.49c0-.57-.12-.99-.35-1.28-.23-.29-.6-.43-1.09-.43-.71,0-1.2.22-1.48.66-.28.44-.41,1.07-.41,1.89v3.64h-1.56v-7.33h1.22l.22.99h.09c.16-.26.36-.47.59-.63.24-.17.5-.29.8-.37.29-.08.6-.13.92-.13Z" />
          <path class="cls-6"
            d="M138.54,25.59c-.69,0-1.29-.13-1.8-.4-.51-.27-.9-.68-1.17-1.24-.27-.56-.41-1.27-.41-2.12s.15-1.62.45-2.19.72-.98,1.25-1.25c.53-.27,1.14-.4,1.83-.4.44,0,.83.04,1.19.13.36.09.66.19.91.31l-.46,1.25c-.27-.11-.55-.2-.83-.27-.28-.08-.55-.12-.82-.12-.43,0-.79.1-1.07.29-.29.19-.5.48-.64.85-.14.38-.21.84-.21,1.39s.07.99.21,1.36c.14.37.35.65.63.83.28.19.62.28,1.03.28s.76-.05,1.08-.15c.32-.1.62-.22.9-.38v1.35c-.28.16-.58.28-.89.35-.32.08-.71.12-1.17.12Z" />
          <path class="cls-6"
            d="M148.82,21.77c0,.61-.08,1.15-.24,1.62s-.39.87-.7,1.2c-.3.33-.67.57-1.1.74-.43.17-.91.25-1.45.25-.5,0-.97-.08-1.38-.25-.42-.17-.78-.42-1.09-.74-.31-.33-.54-.73-.71-1.2-.17-.47-.25-1.01-.25-1.62,0-.81.14-1.49.42-2.06.28-.56.68-.99,1.2-1.29s1.14-.44,1.86-.44c.68,0,1.27.15,1.79.44s.92.73,1.21,1.29c.29.57.44,1.25.44,2.05ZM143.5,21.77c0,.53.06.99.2,1.37.13.38.33.67.61.87.27.2.63.3,1.06.3s.78-.1,1.05-.3c.27-.2.48-.49.61-.87.13-.38.2-.84.2-1.37s-.06-.98-.2-1.35c-.13-.37-.33-.66-.61-.85-.27-.2-.63-.29-1.06-.29-.64,0-1.12.22-1.41.65s-.44,1.05-.44,1.85Z" />
          <path class="cls-6"
            d="M154.43,17.98c.83,0,1.47.21,1.93.64.46.43.69,1.11.69,2.05v4.78h-1.56v-4.49c0-.57-.12-.99-.35-1.28-.23-.29-.6-.43-1.09-.43-.71,0-1.2.22-1.48.66-.28.44-.41,1.07-.41,1.89v3.64h-1.56v-7.33h1.22l.22.99h.09c.16-.26.36-.47.59-.63.24-.17.5-.29.8-.37.29-.08.6-.13.92-.13Z" />
          <path class="cls-6"
            d="M167.09,25.45l-2.79-8.08h-.06c.01.18.03.43.05.74.02.31.03.65.05,1.01.01.36.02.7.02,1.02v5.31h-1.44v-9.69h2.23l2.68,7.73h.04l2.77-7.73h2.23v9.69h-1.52v-5.39c0-.3,0-.61.01-.96s.02-.67.04-.98c.02-.31.03-.56.04-.74h-.06l-2.89,8.07h-1.41Z" />
          <path class="cls-6"
            d="M176.04,15.31c.24,0,.45.06.62.19.17.13.26.35.26.66s-.09.53-.26.66c-.17.13-.38.2-.62.2s-.46-.07-.63-.2c-.17-.13-.26-.35-.26-.66s.09-.53.26-.66c.17-.13.38-.19.63-.19ZM176.81,18.12v7.33h-1.56v-7.33h1.56Z" />
          <path class="cls-6"
            d="M181.99,25.59c-.69,0-1.29-.13-1.8-.4-.51-.27-.9-.68-1.17-1.24-.27-.56-.41-1.27-.41-2.12s.15-1.62.45-2.19.72-.98,1.25-1.25c.53-.27,1.14-.4,1.83-.4.44,0,.83.04,1.19.13.36.09.66.19.91.31l-.46,1.25c-.27-.11-.55-.2-.83-.27-.28-.08-.55-.12-.82-.12-.43,0-.79.1-1.07.29-.29.19-.5.48-.64.85-.14.38-.21.84-.21,1.39s.07.99.21,1.36c.14.37.35.65.63.83.28.19.62.28,1.03.28s.76-.05,1.08-.15c.32-.1.62-.22.9-.38v1.35c-.28.16-.58.28-.89.35-.32.08-.71.12-1.17.12Z" />
          <path class="cls-6"
            d="M189.49,17.98c.12,0,.26,0,.4.02.15.01.27.03.38.05l-.15,1.46c-.09-.03-.21-.05-.34-.06-.13-.02-.26-.02-.36-.02-.28,0-.54.05-.79.14s-.48.23-.67.41c-.2.18-.35.41-.46.69s-.17.59-.17.95v3.83h-1.57v-7.33h1.23l.21,1.29h.07c.15-.26.33-.5.54-.72.22-.22.46-.39.75-.52.28-.13.59-.2.92-.2Z" />
          <path class="cls-6"
            d="M198.13,21.77c0,.61-.08,1.15-.24,1.62s-.39.87-.7,1.2c-.3.33-.67.57-1.1.74-.43.17-.91.25-1.45.25-.5,0-.97-.08-1.38-.25-.42-.17-.78-.42-1.09-.74-.31-.33-.54-.73-.71-1.2-.17-.47-.25-1.01-.25-1.62,0-.81.14-1.49.42-2.06.28-.56.68-.99,1.2-1.29s1.14-.44,1.86-.44c.68,0,1.27.15,1.79.44s.92.73,1.21,1.29c.29.57.44,1.25.44,2.05ZM192.81,21.77c0,.53.06.99.2,1.37.13.38.33.67.61.87.27.2.63.3,1.06.3s.78-.1,1.05-.3c.27-.2.48-.49.61-.87.13-.38.2-.84.2-1.37s-.06-.98-.2-1.35c-.13-.37-.33-.66-.61-.85-.27-.2-.63-.29-1.06-.29-.64,0-1.12.22-1.41.65s-.44,1.05-.44,1.85Z" />
          <path class="cls-6"
            d="M204.84,23.36c0,.48-.12.89-.35,1.22-.23.33-.58.58-1.02.75s-1,.25-1.65.25c-.51,0-.95-.04-1.32-.11-.37-.07-.72-.18-1.05-.33v-1.34c.35.16.75.3,1.18.42.43.12.85.18,1.24.18.51,0,.88-.08,1.1-.24.23-.16.34-.38.34-.65,0-.16-.04-.3-.14-.43-.09-.13-.26-.26-.5-.39s-.61-.29-1.08-.48c-.46-.19-.85-.37-1.17-.56-.32-.19-.56-.41-.72-.67-.16-.26-.25-.6-.25-1.01,0-.65.26-1.15.78-1.49.52-.34,1.2-.51,2.05-.51.45,0,.88.05,1.28.14.4.09.79.22,1.18.39l-.49,1.17c-.33-.14-.66-.26-1-.35-.33-.09-.67-.14-1.02-.14-.4,0-.71.06-.92.19-.21.12-.31.3-.31.52,0,.17.05.32.15.44.1.12.28.24.53.36.25.12.6.27,1.04.44.44.17.82.34,1.14.53.32.18.57.41.74.67.17.27.26.61.26,1.03Z" />
          <path class="cls-6"
            d="M213.01,21.77c0,.61-.08,1.15-.24,1.62s-.39.87-.7,1.2c-.3.33-.67.57-1.1.74-.43.17-.91.25-1.45.25-.5,0-.97-.08-1.38-.25-.42-.17-.78-.42-1.09-.74-.31-.33-.54-.73-.71-1.2-.17-.47-.25-1.01-.25-1.62,0-.81.14-1.49.42-2.06.28-.56.68-.99,1.2-1.29s1.14-.44,1.86-.44c.68,0,1.27.15,1.79.44s.92.73,1.21,1.29c.29.57.44,1.25.44,2.05ZM207.69,21.77c0,.53.06.99.2,1.37.13.38.33.67.61.87.27.2.63.3,1.06.3s.78-.1,1.05-.3c.27-.2.48-.49.61-.87.13-.38.2-.84.2-1.37s-.06-.98-.2-1.35c-.13-.37-.33-.66-.61-.85-.27-.2-.63-.29-1.06-.29-.64,0-1.12.22-1.41.65s-.44,1.05-.44,1.85Z" />
          <path class="cls-6"
            d="M218.46,19.31h-1.78v6.14h-1.56v-6.14h-1.19v-.76l1.19-.46v-.51c0-.62.1-1.12.3-1.48.2-.37.48-.63.85-.79.37-.16.81-.24,1.32-.24.34,0,.64.03.92.09s.51.12.7.19l-.4,1.17c-.15-.05-.32-.09-.5-.13-.19-.04-.38-.06-.6-.06-.35,0-.61.11-.78.33-.17.22-.25.54-.25.96v.5h1.78v1.19Z" />
          <path class="cls-6"
            d="M222.44,24.33c.2,0,.4-.02.6-.06.2-.04.38-.08.54-.14v1.18c-.17.08-.39.14-.67.19-.27.05-.56.08-.85.08-.42,0-.79-.07-1.12-.21-.33-.14-.59-.38-.79-.72-.19-.34-.29-.81-.29-1.41v-3.94h-1v-.7l1.07-.56.51-1.57h.98v1.63h2.1v1.19h-2.1v3.92c0,.37.09.65.28.83s.43.27.74.27Z" />
        </g>
      </g>
    </g>
  </g>
</svg>